<svg width="48" height="20" viewBox="0 0 48 20" fill="none" xmlns="http://www.w3.org/2000/svg">
<g clip-path="url(#clip0_209_187)">
<path d="M36.9971 0.683533V10.0276L36.8786 10.126L36.7601 10.2245L36.6466 10.3279L36.538 10.4313L36.4343 10.5347L36.3307 10.643L36.232 10.7513L36.1332 10.8596V0.683533H25.7524V9.19065H24.8935V0.683533H14.5126V9.20542H13.6537V0.683533H3.27282V10.3968L0.62207 19.2042H2.95197L4.12185 15.3051H4.45752L6.39251 19.2042H9.20615L7.33039 15.3051H11.5854L10.4057 19.2042H12.9478L14.1128 15.315H14.6755V15.3051H15.4752H15.5393H20.3423L19.2168 19.1944H21.7836L22.8745 15.3051H24.0296L24.0592 19.1944H26.2114L28.6845 15.3051H30.3035L29.4644 19.1944H31.9917L32.8161 15.3051H34.2772L34.2673 15.5267L34.2725 15.7531L34.2824 15.9697L34.3021 16.1864L34.3169 16.2897L34.3317 16.3931L34.3515 16.4965L34.3712 16.5999L34.3958 16.7033L34.4205 16.8017L34.4501 16.9002L34.4797 16.9987L34.5143 17.0971L34.5489 17.1907L34.5883 17.2842L34.6278 17.3728L34.6723 17.4664L34.7167 17.555L34.7661 17.6387L34.8155 17.7273L34.8698 17.811L34.929 17.8898L34.9883 17.9734L35.0525 18.0473L35.1166 18.1261L35.1808 18.1999L35.2548 18.2738L35.3289 18.3427L35.4227 18.4214L35.5165 18.5002L35.6152 18.5741L35.7188 18.643L35.8225 18.7119L35.9262 18.7759L36.0348 18.83L36.1483 18.8891L36.2569 18.9383L36.3704 18.9876L36.484 19.0319L36.6024 19.0762L36.7209 19.1156L36.8394 19.1501L36.9578 19.1845L37.0763 19.2141L37.3132 19.2682L37.5551 19.3076L37.7921 19.3421L38.029 19.3716L38.261 19.3913L38.4881 19.4012L38.7102 19.411H38.9224L39.2088 19.4064L39.4951 19.4017L39.7863 19.3869L40.0775 19.3721L40.3688 19.3475L40.66 19.3228L40.9512 19.2933L41.2425 19.2589L41.5386 19.2194L41.8348 19.1751L42.131 19.1259L42.4272 19.0767L42.7233 19.0225L43.0195 18.9635L43.3157 18.9044L43.6168 18.8355L44.4954 15.3056H47.3782V0.683988L36.9971 0.683533ZM4.23538 14.9408L4.25018 14.8867L4.28476 14.9408H4.23538ZM13.2785 9.70265L13.1305 10.1999L11.7483 14.7784L11.694 14.9408H7.15268L6.8022 14.1925L11.694 9.20542H8.54962L4.72406 13.3162L5.96304 9.20542H3.64302V1.05277H13.2785L13.2785 9.70265ZM15.9589 13.5722L15.8849 13.5769L15.8158 13.5816L15.7417 13.5862H15.6627H15.5591H15.4702L15.3863 13.5909H15.3073L14.6903 13.5862L14.9766 12.5327L15.1099 12.0108L15.4357 10.785H15.5393H15.6479L15.7516 10.7803H15.8503H16.3291L16.6204 10.785L16.8869 10.7949L17.0054 10.7995L17.1189 10.8094L17.2275 10.8242L17.3262 10.8389L17.4151 10.8537L17.499 10.8784L17.578 10.903L17.6471 10.9325L17.7063 10.9621L17.7606 11.0015L17.81 11.0409L17.8495 11.0901L17.8741 11.1296L17.8939 11.169L17.9136 11.2133L17.9284 11.2625L17.9383 11.3166L17.9435 11.3708V11.4298V11.4938L17.9383 11.5628L17.9336 11.6317L17.9188 11.7105L17.904 11.7892L17.8596 11.9566L17.8053 12.1437L17.7509 12.3012L17.6917 12.4539L17.6275 12.5966L17.5584 12.7295L17.5238 12.7886L17.4893 12.8477L17.4497 12.9068L17.4053 12.9609L17.3609 13.015L17.3164 13.0643L17.267 13.1135L17.2176 13.1578L17.1633 13.1972L17.109 13.2415L17.0498 13.276L16.9856 13.3154L16.9214 13.3499L16.8523 13.3794L16.7832 13.4089L16.7092 13.4336L16.6302 13.4631L16.5463 13.4828L16.4574 13.5025L16.3686 13.5222L16.2699 13.5369L16.1711 13.5517L16.0675 13.5616L15.9589 13.5715L15.9589 13.5722ZM22.9782 14.9408L23.9901 11.347L24.0296 14.9408H22.9782ZM24.5183 9.19065H22.1094L20.4509 14.9408H17.8939L18.0124 14.8916L18.1308 14.8424L18.2444 14.7932L18.3579 14.739L18.4665 14.6849L18.5702 14.6209L18.6738 14.5618L18.7725 14.4978L18.8713 14.4289L18.9651 14.36L19.0539 14.2911L19.1428 14.2123L19.2267 14.1384L19.3057 14.0547L19.3846 13.976L19.4587 13.8874L19.5327 13.8037L19.6018 13.7101L19.666 13.6215L19.7302 13.5231L19.7894 13.4246L19.8437 13.3261L19.898 13.2227L19.9474 13.1144L19.9968 13.0061L20.0412 12.8978L20.0807 12.7846L20.1202 12.6664L20.1498 12.5483L20.1844 12.4301L20.2091 12.3021L20.2337 12.179L20.2683 11.9821L20.2979 11.795L20.3176 11.6178L20.3324 11.4504L20.3376 11.283L20.3324 11.1304L20.3278 10.9778L20.3081 10.835L20.2883 10.7021L20.2537 10.5692L20.2192 10.4461L20.1698 10.328L20.1155 10.2147L20.0562 10.1015L19.9871 9.99811L19.9081 9.89965L19.844 9.83072L19.7798 9.7618L19.7107 9.70272L19.6367 9.64859L19.5577 9.59447L19.4787 9.54524L19.3948 9.50092L19.3109 9.46151L19.222 9.42209L19.1332 9.39255L19.0394 9.363L18.9456 9.33345L18.8469 9.30881L18.7481 9.28913L18.6494 9.26945L18.5457 9.25468L18.3335 9.22514L18.1212 9.21036L17.904 9.19559L17.6819 9.19092H17.2376H16.7983H16.6601H16.4133H16.1073H15.7666H15.4359H15.1546H14.9571H14.8831V1.05303H24.5186L24.5183 9.19065ZM30.3727 14.9408H28.9263L31.118 11.4947L30.3727 14.9408ZM35.7581 9.35311L35.7529 11.347L35.6294 11.5193L35.5159 11.6965L35.4024 11.8737L35.2987 12.051L35.2 12.2282L35.1013 12.4104L35.0174 12.5876L34.9334 12.7648L34.8545 12.9371L34.7854 13.1144L34.7162 13.2867L34.657 13.4541L34.6027 13.6214L34.5533 13.7839L34.5089 13.9414L34.4694 14.099L34.4447 14.2024L34.42 14.3107L34.3954 14.4141L34.3756 14.5224L34.3559 14.6258L34.3411 14.7291L34.3263 14.8325L34.3164 14.9408H32.8998L34.1091 9.20542L30.0318 9.20075L26.3839 14.9411H26.1174V1.05302H35.7578L35.7581 9.35311ZM41.3163 17.2892L41.1139 17.3236L40.9066 17.3532L40.6992 17.3827L40.4968 17.4073L40.2945 17.427L40.0921 17.4418L39.8946 17.4517H39.6972H39.5688L39.4405 17.447L39.3171 17.4371L39.1937 17.4223L39.0752 17.4027L38.9617 17.383L38.8481 17.3584L38.7396 17.3288L38.6359 17.2944L38.5322 17.2599L38.4335 17.2156L38.3397 17.1713L38.2459 17.1171L38.1571 17.063L38.0732 17.0039L37.9942 16.9448L37.9152 16.8759L37.8461 16.8021L37.777 16.7282L37.7128 16.6445L37.6536 16.5608L37.5993 16.4673L37.5499 16.3738L37.5005 16.2753L37.461 16.1719L37.4264 16.0587L37.3968 15.9455L37.3672 15.8273L37.3475 15.7042L37.3327 15.5762L37.3228 15.4433L37.3176 15.3055H41.8096L41.3163 17.2892ZM47.0127 14.9408H44.584L44.9839 13.3359H40.1168L39.7169 14.9408H37.3623V14.611L37.3919 14.4731L37.4166 14.3353L37.4462 14.1876L37.4758 14.0399L37.5202 13.8774L37.5647 13.715L37.6141 13.5525L37.6684 13.395L37.7276 13.2374L37.7918 13.0799L37.8609 12.9273L37.93 12.7747L38.009 12.6221L38.088 12.4793L38.1719 12.3316L38.2657 12.1937L38.3595 12.0559L38.4532 11.923L38.5569 11.795L38.6655 11.6719L38.779 11.5537L38.8926 11.4454L39.016 11.3371L39.1394 11.2337L39.2677 11.1402L39.4059 11.0516L39.5441 10.9728L39.6873 10.899L39.8354 10.83L39.9884 10.771L40.1464 10.7217L40.3093 10.6823L40.4771 10.6479L40.6499 10.6232L40.8276 10.6085L41.0102 10.6038L41.1534 10.6085L41.2965 10.6183L41.4397 10.638L41.5779 10.6676L41.647 10.6872L41.7111 10.7069L41.7753 10.7266L41.8345 10.7561L41.8938 10.7808L41.953 10.8152L42.0073 10.8497L42.0616 10.8841L42.111 10.9285L42.1604 10.9728L42.2049 11.0171L42.2493 11.0712L42.2888 11.1204L42.3234 11.1795L42.353 11.2435L42.3826 11.3075L42.4073 11.3764L42.427 11.4503L42.4418 11.5241L42.4566 11.6078L42.4618 11.6915V11.7801V11.8737L42.4519 11.9721H45.3544L45.3989 11.7703L45.4384 11.5389L45.4581 11.4158L45.468 11.2829L45.4779 11.15V11.0121L45.4732 10.8694L45.4584 10.7217L45.4436 10.6528L45.4338 10.5789L45.414 10.5051L45.3943 10.4312L45.3696 10.3524L45.345 10.2786L45.3154 10.2047L45.2808 10.1309L45.2462 10.0571L45.2018 9.98321L45.1573 9.90936L45.1079 9.83551L45.0487 9.75675L44.9845 9.6829L44.9204 9.60905L44.8512 9.54013L44.7772 9.47121L44.6982 9.40721L44.6192 9.34813L44.5353 9.28905L44.4465 9.22998L44.3576 9.18075L44.2638 9.13153L44.1651 9.0823L44.0664 9.03798L43.9627 8.99366L43.8541 8.95425L43.7455 8.91483L43.6369 8.88038L43.5185 8.85084L43.4049 8.82129L43.2815 8.79174L43.1581 8.7671L43.0347 8.74246L42.9064 8.72278L42.7731 8.70801L42.5016 8.67846L42.2252 8.65382L41.9339 8.64395L41.6378 8.63928L41.4156 8.64395L41.1836 8.64863L40.9418 8.6634L40.69 8.68308L40.4284 8.71262L40.1618 8.74707L39.8904 8.79139L39.6139 8.85047L39.4757 8.88002L39.3326 8.91447L39.1943 8.95388L39.0512 8.9933L38.908 9.03761L38.7649 9.08684L38.6217 9.13606L38.4835 9.19019L38.3404 9.24927L38.1972 9.31327L38.059 9.37727L37.9159 9.4462L37.7776 9.52004L37.6394 9.59881L37.5012 9.67758L37.363 9.7662V1.05231H47.0133V14.9404L47.0127 14.9408Z" fill="white"/>
</g>
<defs>
<clipPath id="clip0_209_187">
<rect width="48" height="20" fill="white"/>
</clipPath>
</defs>
</svg>
