<svg width="142" height="20" viewBox="0 0 142 20" fill="none" xmlns="http://www.w3.org/2000/svg">
<path d="M1.45667 4.813L3.43267 12.337L5.61133 4.813H7.182L9.24667 12.4003L11.324 4.813H12.5653L9.85467 13.9583H8.44867L6.33333 6.143L4.066 13.9583H2.698L0.101333 4.813H1.45667ZM13.8106 10.9943C13.8022 11.3237 13.8317 11.6277 13.8993 11.9063C13.9668 12.185 14.0724 12.4299 14.216 12.641C14.368 12.8437 14.558 13.0041 14.786 13.1223C15.0224 13.2321 15.3053 13.287 15.6346 13.287C16.0231 13.287 16.3566 13.1814 16.6353 12.9703C16.914 12.7592 17.0786 12.4257 17.1293 11.9697H18.32C18.3031 12.1301 18.2651 12.3328 18.206 12.5777C18.1468 12.8141 18.0033 13.0548 17.7753 13.2997C17.7077 13.3757 17.6148 13.4643 17.4966 13.5657C17.3784 13.667 17.2306 13.7599 17.0533 13.8443C16.876 13.9288 16.6648 14.0006 16.42 14.0597C16.1835 14.1188 15.9048 14.1483 15.584 14.1483C14.5791 14.1483 13.836 13.857 13.3546 13.2743C12.8733 12.6917 12.6326 11.8979 12.6326 10.893C12.6326 10.2681 12.7171 9.70233 12.886 9.19567C13.0548 8.68055 13.3884 8.24989 13.8866 7.90367C14.0386 7.79389 14.1948 7.70944 14.3553 7.65033C14.5242 7.59122 14.6846 7.54478 14.8366 7.511C14.9971 7.47722 15.1448 7.45611 15.28 7.44767C15.4151 7.43922 15.5291 7.435 15.622 7.435C16.1033 7.435 16.5044 7.49833 16.8253 7.625C17.1462 7.75167 17.408 7.92055 17.6106 8.13167C17.8217 8.33433 17.978 8.56655 18.0793 8.82833C18.1891 9.08166 18.2651 9.34344 18.3073 9.61366C18.3495 9.87544 18.3706 10.1288 18.3706 10.3737C18.3791 10.6186 18.3833 10.8254 18.3833 10.9943H13.8106ZM17.1673 10.1583C17.1673 10.0063 17.1546 9.82478 17.1293 9.61366C17.104 9.39411 17.0364 9.18722 16.9266 8.993C16.8253 8.79878 16.6691 8.63411 16.458 8.499C16.2468 8.35544 15.9597 8.28367 15.5966 8.28367C15.4024 8.28367 15.204 8.31744 15.0013 8.385C14.7986 8.44411 14.6128 8.54966 14.444 8.70166C14.2835 8.84522 14.1484 9.03522 14.0386 9.27167C13.9288 9.50811 13.8697 9.80367 13.8613 10.1583H17.1673ZM21.5661 4.813L20.1474 7.929H19.2861L20.1094 4.813H21.5661ZM26.2792 4.82566H27.4698V12.945C27.4698 12.9788 27.4698 13.0379 27.4698 13.1223C27.4698 13.1983 27.4698 13.287 27.4698 13.3883C27.4783 13.4812 27.4867 13.5783 27.4952 13.6797C27.5036 13.781 27.5121 13.8739 27.5205 13.9583H26.3298L26.3045 12.945C26.2538 13.0379 26.1863 13.1434 26.1018 13.2617C26.0258 13.3799 25.9034 13.4981 25.7345 13.6163C25.4727 13.7937 25.1983 13.9161 24.9112 13.9837C24.6325 14.0512 24.3834 14.085 24.1638 14.085C23.9527 14.085 23.691 14.047 23.3785 13.971C23.0661 13.895 22.7663 13.743 22.4792 13.515C22.1921 13.287 21.943 12.9619 21.7318 12.5397C21.5292 12.1174 21.4278 11.5559 21.4278 10.855C21.4278 10.247 21.5081 9.72767 21.6685 9.297C21.829 8.85789 22.0401 8.499 22.3018 8.22033C22.5721 7.93322 22.8803 7.72211 23.2265 7.587C23.5727 7.45189 23.9316 7.38433 24.3032 7.38433C24.641 7.38433 24.9281 7.43078 25.1645 7.52367C25.401 7.60811 25.5952 7.70944 25.7472 7.82766C25.8992 7.94589 26.0132 8.06833 26.0892 8.195C26.1736 8.31322 26.237 8.40189 26.2792 8.461V4.82566ZM26.3172 10.6903C26.3172 10.2259 26.2707 9.85855 26.1778 9.58833C26.085 9.30966 25.971 9.08589 25.8358 8.917C25.7092 8.74811 25.5276 8.60033 25.2912 8.47366C25.0632 8.33855 24.7803 8.271 24.4425 8.271C24.147 8.271 23.8978 8.32589 23.6952 8.43567C23.501 8.537 23.3405 8.67211 23.2138 8.841C23.0872 9.00144 22.9858 9.183 22.9098 9.38566C22.8423 9.57989 22.7916 9.77411 22.7578 9.96833C22.7241 10.1541 22.703 10.3272 22.6945 10.4877C22.6945 10.6397 22.6945 10.7494 22.6945 10.817C22.6945 11.0957 22.7156 11.3828 22.7578 11.6783C22.8085 11.9654 22.8972 12.2272 23.0238 12.4637C23.1505 12.6917 23.3278 12.8817 23.5558 13.0337C23.7838 13.1772 24.0794 13.249 24.4425 13.249C24.907 13.249 25.2658 13.1392 25.5192 12.9197C25.781 12.7001 25.9667 12.4468 26.0765 12.1597C26.1947 11.8641 26.2623 11.577 26.2792 11.2983C26.3045 11.0197 26.3172 10.817 26.3172 10.6903Z" fill="white"/>
<path d="M55.894 13.9963L54.982 16.365H53.7533L54.716 13.933L52.0686 7.59966H53.4113L55.4 12.6157L57.4266 7.59966H58.7186L55.894 13.9963ZM59.4155 10.855C59.4155 10.4666 59.4662 10.0697 59.5675 9.66433C59.6688 9.259 59.8419 8.89166 60.0868 8.56233C60.3402 8.233 60.6737 7.96278 61.0875 7.75167C61.5013 7.54055 62.0206 7.435 62.6455 7.435C63.2788 7.435 63.7982 7.549 64.2035 7.777C64.6088 7.99655 64.9255 8.27522 65.1535 8.613C65.3899 8.94233 65.5504 9.30122 65.6348 9.68967C65.7193 10.0781 65.7615 10.437 65.7615 10.7663C65.7615 11.2308 65.6939 11.6699 65.5588 12.0837C65.4322 12.4974 65.2337 12.8606 64.9635 13.173C64.7017 13.477 64.3682 13.7219 63.9628 13.9077C63.5575 14.085 63.0846 14.1737 62.5442 14.1737C62.0206 14.1737 61.5604 14.0892 61.1635 13.9203C60.775 13.743 60.4499 13.5066 60.1882 13.211C59.9264 12.9154 59.7322 12.565 59.6055 12.1597C59.4788 11.7543 59.4155 11.3194 59.4155 10.855ZM60.6568 10.779C60.6568 11.1083 60.6906 11.425 60.7582 11.729C60.8342 12.0246 60.9482 12.2906 61.1002 12.527C61.2606 12.755 61.459 12.9408 61.6955 13.0843C61.9404 13.2194 62.2317 13.287 62.5695 13.287C62.7975 13.287 63.0255 13.2448 63.2535 13.1603C63.4815 13.0674 63.6842 12.9239 63.8615 12.7297C64.0473 12.527 64.1993 12.2652 64.3175 11.9443C64.4357 11.615 64.4948 11.2097 64.4948 10.7283C64.4948 9.93455 64.3259 9.335 63.9882 8.92967C63.6504 8.51589 63.2028 8.309 62.6455 8.309C62.4513 8.309 62.2402 8.347 62.0122 8.423C61.7842 8.49055 61.5688 8.61722 61.3662 8.803C61.1635 8.98033 60.9946 9.22944 60.8595 9.55033C60.7244 9.87122 60.6568 10.2808 60.6568 10.779ZM68.717 7.59966V11.691C68.717 11.843 68.7296 12.0034 68.755 12.1723C68.7803 12.3412 68.8394 12.4932 68.9323 12.6283C69.0336 12.7634 69.173 12.8774 69.3503 12.9703C69.5276 13.0548 69.7683 13.097 70.0723 13.097C70.3679 13.097 70.6465 13.0421 70.9083 12.9323C71.1785 12.8226 71.3981 12.641 71.567 12.3877C71.7021 12.1934 71.7781 11.9866 71.795 11.767C71.8203 11.5474 71.833 11.3574 71.833 11.197V7.59966H73.0616V12.7677C73.0616 12.8014 73.0616 12.8648 73.0616 12.9577C73.0701 13.0506 73.0743 13.1561 73.0743 13.2743C73.0828 13.3926 73.087 13.515 73.087 13.6417C73.0954 13.7683 73.0996 13.8739 73.0996 13.9583H71.8583L71.833 12.869C71.7739 12.9788 71.6979 13.1012 71.605 13.2363C71.5205 13.3714 71.4023 13.4981 71.2503 13.6163C71.0983 13.7261 70.9041 13.8232 70.6676 13.9077C70.4396 13.9837 70.1525 14.0217 69.8063 14.0217C69.021 14.0217 68.4383 13.8232 68.0583 13.4263C67.6868 13.021 67.501 12.5017 67.501 11.8683V7.59966H68.717ZM75.4345 8.89167C75.4345 8.67211 75.426 8.45678 75.4091 8.24566C75.4007 8.02611 75.388 7.81078 75.3711 7.59966H76.5745L76.5998 8.82833C76.6589 8.60878 76.7434 8.423 76.8531 8.271C76.9714 8.119 77.1022 7.99655 77.2458 7.90367C77.3894 7.80233 77.5371 7.72633 77.6891 7.67566C77.8411 7.625 77.9847 7.59122 78.1198 7.57433C78.2971 7.549 78.4534 7.53633 78.5885 7.53633C78.7236 7.53633 78.8418 7.54055 78.9431 7.549V8.71433C78.9178 8.70589 78.884 8.69744 78.8418 8.689C78.808 8.68055 78.7658 8.67211 78.7151 8.66367C78.6729 8.65522 78.6222 8.651 78.5631 8.651C78.504 8.651 78.4407 8.651 78.3731 8.651C78.0185 8.651 77.7271 8.70166 77.4991 8.803C77.2796 8.89589 77.1065 9.031 76.9798 9.20833C76.8531 9.37722 76.7645 9.57989 76.7138 9.81633C76.6631 10.0528 76.6378 10.3061 76.6378 10.5763V13.9583H75.4345V8.89167ZM82.8444 7.57433H83.9717V6.24433L85.1497 5.86433V7.57433H86.5684V8.44833H85.1497V12.261C85.1497 12.337 85.1539 12.4257 85.1624 12.527C85.1708 12.6283 85.2004 12.7212 85.251 12.8057C85.3101 12.8901 85.3946 12.9619 85.5044 13.021C85.6226 13.0801 85.7873 13.1097 85.9984 13.1097C86.1166 13.1097 86.2264 13.1054 86.3277 13.097C86.4375 13.0801 86.5177 13.0632 86.5684 13.0463V13.971C86.4586 13.9879 86.3193 14.0048 86.1504 14.0217C85.9899 14.0386 85.7999 14.047 85.5804 14.047C85.0315 14.047 84.6261 13.9541 84.3644 13.7683C84.1026 13.5741 83.9717 13.2152 83.9717 12.6917V8.44833H82.8444V7.57433ZM88.0378 4.82566H89.2411V8.537C89.4354 8.19922 89.714 7.94166 90.0771 7.76433C90.4402 7.57855 90.8498 7.48566 91.3058 7.48566C91.4747 7.48566 91.6562 7.50255 91.8505 7.53633C92.0447 7.57011 92.2347 7.625 92.4205 7.701C92.6062 7.777 92.7751 7.88255 92.9271 8.01767C93.0876 8.14433 93.2142 8.30478 93.3071 8.499C93.3409 8.56655 93.3705 8.63833 93.3958 8.71433C93.4211 8.78189 93.4422 8.87478 93.4591 8.993C93.476 9.10278 93.4887 9.23789 93.4971 9.39833C93.514 9.55878 93.5225 9.753 93.5225 9.981V13.9583H92.3065V10.1963C92.3065 10.0612 92.298 9.89233 92.2811 9.68967C92.2727 9.47855 92.222 9.28011 92.1291 9.09433C92.0447 8.90011 91.9096 8.73544 91.7238 8.60033C91.538 8.46522 91.2762 8.39767 90.9385 8.39767C90.7189 8.39767 90.5247 8.42722 90.3558 8.48633C90.1869 8.54544 90.0391 8.62144 89.9125 8.71433C89.7942 8.79878 89.6971 8.89167 89.6211 8.993C89.5451 9.08589 89.486 9.17033 89.4438 9.24633C89.3425 9.42367 89.2834 9.64322 89.2665 9.905C89.2496 10.1668 89.2411 10.3948 89.2411 10.589V13.9583H88.0378V4.82566ZM95.3126 10.855C95.3126 10.4666 95.3633 10.0697 95.4646 9.66433C95.566 9.259 95.7391 8.89166 95.984 8.56233C96.2373 8.233 96.5708 7.96278 96.9846 7.75167C97.3984 7.54055 97.9177 7.435 98.5426 7.435C99.176 7.435 99.6953 7.549 100.101 7.777C100.506 7.99655 100.823 8.27522 101.051 8.613C101.287 8.94233 101.448 9.30122 101.532 9.68967C101.616 10.0781 101.659 10.437 101.659 10.7663C101.659 11.2308 101.591 11.6699 101.456 12.0837C101.329 12.4974 101.131 12.8606 100.861 13.173C100.599 13.477 100.265 13.7219 99.86 13.9077C99.4546 14.085 98.9817 14.1737 98.4413 14.1737C97.9177 14.1737 97.4575 14.0892 97.0606 13.9203C96.6722 13.743 96.3471 13.5066 96.0853 13.211C95.8235 12.9154 95.6293 12.565 95.5026 12.1597C95.376 11.7543 95.3126 11.3194 95.3126 10.855ZM96.554 10.779C96.554 11.1083 96.5877 11.425 96.6553 11.729C96.7313 12.0246 96.8453 12.2906 96.9973 12.527C97.1577 12.755 97.3562 12.9408 97.5926 13.0843C97.8375 13.2194 98.1288 13.287 98.4666 13.287C98.6946 13.287 98.9226 13.2448 99.1506 13.1603C99.3786 13.0674 99.5813 12.9239 99.7586 12.7297C99.9444 12.527 100.096 12.2652 100.215 11.9443C100.333 11.615 100.392 11.2097 100.392 10.7283C100.392 9.93455 100.223 9.335 99.8853 8.92967C99.5475 8.51589 99.1 8.309 98.5426 8.309C98.3484 8.309 98.1373 8.347 97.9093 8.423C97.6813 8.49055 97.466 8.61722 97.2633 8.803C97.0606 8.98033 96.8917 9.22944 96.7566 9.55033C96.6215 9.87122 96.554 10.2808 96.554 10.779ZM104.614 7.59966V11.691C104.614 11.843 104.627 12.0034 104.652 12.1723C104.677 12.3412 104.737 12.4932 104.829 12.6283C104.931 12.7634 105.07 12.8774 105.247 12.9703C105.425 13.0548 105.665 13.097 105.969 13.097C106.265 13.097 106.544 13.0421 106.805 12.9323C107.076 12.8226 107.295 12.641 107.464 12.3877C107.599 12.1934 107.675 11.9866 107.692 11.767C107.717 11.5474 107.73 11.3574 107.73 11.197V7.59966H108.959V12.7677C108.959 12.8014 108.959 12.8648 108.959 12.9577C108.967 13.0506 108.971 13.1561 108.971 13.2743C108.98 13.3926 108.984 13.515 108.984 13.6417C108.993 13.7683 108.997 13.8739 108.997 13.9583H107.755L107.73 12.869C107.671 12.9788 107.595 13.1012 107.502 13.2363C107.418 13.3714 107.299 13.4981 107.147 13.6163C106.995 13.7261 106.801 13.8232 106.565 13.9077C106.337 13.9837 106.05 14.0217 105.703 14.0217C104.918 14.0217 104.335 13.8232 103.955 13.4263C103.584 13.021 103.398 12.5017 103.398 11.8683V7.59966H104.614ZM112.408 14.4523C112.417 14.6297 112.446 14.7943 112.497 14.9463C112.548 15.0983 112.628 15.2292 112.738 15.339C112.856 15.4488 113.008 15.5332 113.194 15.5923C113.379 15.6599 113.612 15.6937 113.89 15.6937C114.304 15.6937 114.625 15.6219 114.853 15.4783C115.081 15.3348 115.246 15.1321 115.347 14.8703C115.457 14.617 115.52 14.313 115.537 13.9583C115.562 13.5952 115.575 13.1983 115.575 12.7677C115.448 13.0294 115.284 13.2321 115.081 13.3757C114.887 13.5192 114.684 13.629 114.473 13.705C114.27 13.7726 114.076 13.8148 113.89 13.8317C113.713 13.8401 113.578 13.8443 113.485 13.8443C113.341 13.8443 113.181 13.8359 113.004 13.819C112.835 13.8021 112.662 13.7641 112.484 13.705C112.315 13.6459 112.146 13.5657 111.978 13.4643C111.817 13.363 111.669 13.2279 111.534 13.059C111.264 12.7381 111.074 12.375 110.964 11.9697C110.863 11.5643 110.812 11.1463 110.812 10.7157C110.812 10.1752 110.884 9.70655 111.028 9.30967C111.18 8.90433 111.382 8.57078 111.636 8.309C111.897 8.03878 112.197 7.84033 112.535 7.71366C112.881 7.57855 113.248 7.511 113.637 7.511C113.958 7.511 114.228 7.54478 114.448 7.61233C114.676 7.67989 114.866 7.76433 115.018 7.86566C115.17 7.967 115.292 8.07255 115.385 8.18233C115.486 8.29211 115.571 8.38922 115.638 8.47366L115.651 7.59966H116.804L116.778 8.75233L116.766 12.7297C116.766 13.1097 116.761 13.439 116.753 13.7177C116.744 13.9963 116.728 14.237 116.702 14.4397C116.677 14.6423 116.643 14.8154 116.601 14.959C116.567 15.111 116.521 15.2461 116.462 15.3643C116.326 15.6177 116.153 15.8203 115.942 15.9723C115.731 16.1243 115.503 16.2383 115.258 16.3143C115.022 16.3903 114.777 16.441 114.524 16.4663C114.27 16.4917 114.034 16.5043 113.814 16.5043C113.181 16.5043 112.687 16.4368 112.332 16.3017C111.978 16.175 111.716 16.0103 111.547 15.8077C111.378 15.605 111.268 15.3812 111.218 15.1363C111.175 14.8999 111.15 14.6719 111.142 14.4523H112.408ZM113.789 12.9577C114.144 12.9577 114.426 12.9028 114.638 12.793C114.857 12.6748 115.039 12.5186 115.182 12.3243C115.241 12.2399 115.296 12.1512 115.347 12.0583C115.406 11.9654 115.452 11.8514 115.486 11.7163C115.528 11.5812 115.558 11.4166 115.575 11.2223C115.6 11.0281 115.613 10.7874 115.613 10.5003C115.613 10.095 115.571 9.77411 115.486 9.53767C115.402 9.29278 115.279 9.08589 115.119 8.917C114.958 8.74811 114.756 8.613 114.511 8.51167C114.274 8.41033 114.021 8.35966 113.751 8.35966C113.371 8.35966 113.067 8.44411 112.839 8.613C112.619 8.78189 112.45 8.98878 112.332 9.23366C112.214 9.47011 112.134 9.72344 112.092 9.99366C112.058 10.2554 112.041 10.4877 112.041 10.6903C112.041 10.9352 112.062 11.1928 112.104 11.463C112.155 11.7248 112.244 11.9697 112.37 12.1977C112.497 12.4172 112.674 12.5988 112.902 12.7423C113.13 12.8859 113.426 12.9577 113.789 12.9577ZM119.012 4.82566H120.215V8.537C120.409 8.19922 120.688 7.94166 121.051 7.76433C121.414 7.57855 121.824 7.48566 122.28 7.48566C122.449 7.48566 122.63 7.50255 122.824 7.53633C123.019 7.57011 123.209 7.625 123.394 7.701C123.58 7.777 123.749 7.88255 123.901 8.01767C124.062 8.14433 124.188 8.30478 124.281 8.499C124.315 8.56655 124.344 8.63833 124.37 8.71433C124.395 8.78189 124.416 8.87478 124.433 8.993C124.45 9.10278 124.463 9.23789 124.471 9.39833C124.488 9.55878 124.496 9.753 124.496 9.981V13.9583H123.28V10.1963C123.28 10.0612 123.272 9.89233 123.255 9.68967C123.247 9.47855 123.196 9.28011 123.103 9.09433C123.019 8.90011 122.884 8.73544 122.698 8.60033C122.512 8.46522 122.25 8.39767 121.912 8.39767C121.693 8.39767 121.499 8.42722 121.33 8.48633C121.161 8.54544 121.013 8.62144 120.886 8.71433C120.768 8.79878 120.671 8.89167 120.595 8.993C120.519 9.08589 120.46 9.17033 120.418 9.24633C120.316 9.42367 120.257 9.64322 120.24 9.905C120.224 10.1668 120.215 10.3948 120.215 10.589V13.9583H119.012V4.82566ZM125.78 7.57433H126.907V6.24433L128.085 5.86433V7.57433H129.504V8.44833H128.085V12.261C128.085 12.337 128.089 12.4257 128.098 12.527C128.106 12.6283 128.136 12.7212 128.187 12.8057C128.246 12.8901 128.33 12.9619 128.44 13.021C128.558 13.0801 128.723 13.1097 128.934 13.1097C129.052 13.1097 129.162 13.1054 129.263 13.097C129.373 13.0801 129.453 13.0632 129.504 13.0463V13.971C129.394 13.9879 129.255 14.0048 129.086 14.0217C128.925 14.0386 128.735 14.047 128.516 14.047C127.967 14.047 127.562 13.9541 127.3 13.7683C127.038 13.5741 126.907 13.2152 126.907 12.6917V8.44833H125.78V7.57433ZM131.657 12.071C131.657 12.1892 131.674 12.3159 131.708 12.451C131.75 12.5861 131.822 12.7128 131.923 12.831C132.025 12.9408 132.164 13.0337 132.341 13.1097C132.527 13.1857 132.764 13.2237 133.051 13.2237C133.296 13.2237 133.511 13.1983 133.697 13.1477C133.882 13.0886 134.039 12.9788 134.165 12.8183C134.3 12.6494 134.368 12.451 134.368 12.223C134.368 11.919 134.254 11.7121 134.026 11.6023C133.806 11.4841 133.456 11.3743 132.975 11.273C132.645 11.197 132.329 11.1168 132.025 11.0323C131.729 10.9479 131.472 10.8381 131.252 10.703C131.032 10.5679 130.855 10.3948 130.72 10.1837C130.593 9.97255 130.53 9.70233 130.53 9.373C130.53 9.08589 130.589 8.82411 130.707 8.58766C130.834 8.34278 131.003 8.14011 131.214 7.97966C131.434 7.81078 131.695 7.67989 131.999 7.587C132.303 7.49411 132.641 7.44767 133.013 7.44767C133.215 7.44767 133.431 7.46455 133.659 7.49833C133.887 7.53211 134.106 7.587 134.317 7.663C134.537 7.739 134.731 7.84033 134.9 7.967C135.077 8.09366 135.212 8.24989 135.305 8.43567C135.39 8.613 135.436 8.77767 135.445 8.92967C135.462 9.08167 135.47 9.22522 135.47 9.36033H134.254C134.262 9.12389 134.224 8.93811 134.14 8.803C134.056 8.65944 133.95 8.55389 133.823 8.48633C133.697 8.41033 133.557 8.36389 133.405 8.347C133.262 8.33011 133.135 8.32166 133.025 8.32166C132.983 8.32166 132.89 8.32589 132.747 8.33433C132.612 8.34278 132.468 8.37655 132.316 8.43567C132.164 8.49478 132.029 8.58766 131.911 8.71433C131.792 8.83255 131.733 9.00567 131.733 9.23366C131.733 9.38567 131.763 9.50811 131.822 9.601C131.89 9.69389 131.97 9.76989 132.063 9.829C132.156 9.87967 132.253 9.92189 132.354 9.95567C132.455 9.98944 132.548 10.019 132.633 10.0443C133.072 10.1457 133.431 10.2343 133.709 10.3103C133.996 10.3779 134.229 10.4454 134.406 10.513C134.592 10.5721 134.74 10.6354 134.849 10.703C134.959 10.7621 135.06 10.8339 135.153 10.9183C135.331 11.0872 135.453 11.2772 135.521 11.4883C135.597 11.691 135.635 11.8937 135.635 12.0963C135.635 12.451 135.55 12.7719 135.381 13.059C135.212 13.3461 135.01 13.5614 134.773 13.705C134.495 13.8739 134.191 13.9879 133.861 14.047C133.54 14.1061 133.215 14.1357 132.886 14.1357C132.565 14.1357 132.253 14.0977 131.949 14.0217C131.653 13.9541 131.391 13.8401 131.163 13.6797C130.935 13.5192 130.75 13.3081 130.606 13.0463C130.471 12.7761 130.403 12.451 130.403 12.071H131.657ZM139.232 11.8683H138.333L138.092 4.82566H139.511L139.232 11.8683ZM138.079 12.6917H139.422V13.9583H138.079V12.6917Z" fill="white"/>
<path fill-rule="evenodd" clip-rule="evenodd" d="M34.18 4.9134C34.8926 4.20101 35.8589 3.80081 36.8666 3.80081C37.8742 3.80081 38.8406 4.20101 39.5532 4.9134L40.6666 6.02585L41.78 4.9134C42.1305 4.55046 42.5498 4.26097 43.0134 4.06181C43.477 3.86266 43.9757 3.75783 44.4802 3.75345C44.9848 3.74906 45.4852 3.84521 45.9522 4.03628C46.4192 4.22734 46.8435 4.50951 47.2003 4.8663C47.5571 5.22309 47.8392 5.64737 48.0303 6.11437C48.2214 6.58138 48.3175 7.08176 48.3131 7.58632C48.3087 8.09088 48.2039 8.58952 48.0048 9.05314C47.8056 9.51675 47.5161 9.93606 47.1532 10.2866L40.6666 16.7741L34.18 10.2866C33.4676 9.57399 33.0674 8.60762 33.0674 7.6C33.0674 6.59237 33.4676 5.626 34.18 4.9134Z" fill="#FF0000"/>
<line x1="2.62268e-08" y1="19.7" x2="142" y2="19.7" stroke="white" stroke-width="0.6"/>
</svg>
