<svg width="24" height="24" viewBox="0 0 24 24" fill="none" xmlns="http://www.w3.org/2000/svg">
<path d="M12 14.4L11.4095 15.0792C11.7481 15.3736 12.2519 15.3736 12.5906 15.0792L12 14.4ZM6.84589 15.1581C7.32404 15.0223 7.60158 14.5247 7.46579 14.0465C7.33 13.5684 6.83231 13.2908 6.35416 13.4266L6.60002 14.2924L6.84589 15.1581ZM17.6459 13.4266C17.1677 13.2908 16.67 13.5684 16.5343 14.0465C16.3985 14.5247 16.676 15.0223 17.1542 15.1581L17.4 14.2924L17.6459 13.4266ZM16.8 7.09568H15.9C15.9 7.66405 15.6762 8.3574 15.2585 9.12928C14.8473 9.88911 14.2877 10.6533 13.7097 11.3444C13.1341 12.0325 12.556 12.6297 12.1207 13.0556C11.9035 13.268 11.7232 13.4365 11.5983 13.551C11.5359 13.6081 11.4874 13.6518 11.4551 13.6805C11.439 13.6949 11.4269 13.7056 11.4192 13.7123C11.4153 13.7157 11.4126 13.7182 11.4109 13.7196C11.4101 13.7203 11.4096 13.7208 11.4093 13.721C11.4092 13.7211 11.4092 13.7211 11.4092 13.7211C11.4092 13.7211 11.4093 13.7211 11.4093 13.721C11.4094 13.721 11.4095 13.7209 12 14.4C12.5906 15.0792 12.5907 15.079 12.5909 15.0789C12.591 15.0788 12.5911 15.0787 12.5913 15.0785C12.5916 15.0783 12.592 15.0779 12.5925 15.0775C12.5934 15.0767 12.5946 15.0757 12.5961 15.0744C12.599 15.0718 12.6032 15.0682 12.6084 15.0636C12.6189 15.0544 12.6337 15.0412 12.6528 15.0242C12.6908 14.9903 12.7454 14.9412 12.8142 14.8782C12.9518 14.7521 13.1465 14.5701 13.3794 14.3423C13.844 13.8878 14.4659 13.2458 15.0904 12.4992C15.7124 11.7555 16.3528 10.8892 16.8415 9.98599C17.3238 9.09483 17.7 8.09252 17.7 7.09568H16.8ZM12 14.4C12.5906 13.7209 12.5907 13.721 12.5908 13.721C12.5908 13.7211 12.5909 13.7211 12.5909 13.7211C12.5909 13.7211 12.5908 13.7211 12.5907 13.721C12.5905 13.7208 12.5899 13.7203 12.5891 13.7196C12.5875 13.7182 12.5847 13.7157 12.5809 13.7123C12.5731 13.7056 12.5611 13.6949 12.545 13.6805C12.5127 13.6518 12.4642 13.6081 12.4017 13.551C12.2768 13.4365 12.0965 13.268 11.8794 13.0556C11.444 12.6297 10.8659 12.0325 10.2904 11.3444C9.71238 10.6533 9.15275 9.88911 8.74155 9.12928C8.32383 8.3574 8.10003 7.66405 8.10003 7.09568H7.20003H6.30003C6.30003 8.09252 6.67622 9.09483 7.1585 9.98599C7.6473 10.8892 8.28767 11.7555 8.90966 12.4992C9.53414 13.2458 10.156 13.8878 10.6207 14.3423C10.8535 14.5701 11.0482 14.7521 11.1858 14.8782C11.2546 14.9412 11.3092 14.9903 11.3473 15.0242C11.3663 15.0412 11.3812 15.0544 11.3917 15.0636C11.3969 15.0682 11.401 15.0718 11.404 15.0744C11.4055 15.0757 11.4067 15.0767 11.4076 15.0775C11.4081 15.0779 11.4084 15.0783 11.4088 15.0785C11.4089 15.0787 11.4091 15.0788 11.4092 15.0789C11.4093 15.079 11.4095 15.0792 12 14.4ZM7.20003 7.09568H8.10003C8.10003 5.01794 9.82736 3.30002 12 3.30002V2.40002V1.50002C8.87075 1.50002 6.30003 3.98674 6.30003 7.09568H7.20003ZM12 2.40002V3.30002C14.1727 3.30002 15.9 5.01794 15.9 7.09568H16.8H17.7C17.7 3.98674 15.1293 1.50002 12 1.50002V2.40002ZM21.6 17.6H20.7C20.7 17.8388 20.5877 18.1477 20.214 18.5159C19.8371 18.8871 19.2456 19.2629 18.4421 19.5977C16.839 20.2657 14.5619 20.7 12 20.7V21.6V22.5C14.7401 22.5 17.263 22.039 19.1344 21.2592C20.0681 20.8702 20.8825 20.384 21.4772 19.7982C22.0751 19.2092 22.5 18.4658 22.5 17.6H21.6ZM12 21.6V20.7C9.43818 20.7 7.16109 20.2657 5.55795 19.5977C4.75442 19.2629 4.16291 18.8871 3.78604 18.5159C3.41235 18.1477 3.30002 17.8388 3.30002 17.6H2.40002H1.50002C1.50002 18.4658 1.92496 19.2092 2.52283 19.7982C3.11754 20.384 3.93192 20.8702 4.86564 21.2592C6.73702 22.039 9.25993 22.5 12 22.5V21.6ZM2.40002 17.6H3.30002C3.30002 17.3054 3.47758 16.8922 4.09872 16.4134C4.71084 15.9416 5.644 15.4994 6.84589 15.1581L6.60002 14.2924L6.35416 13.4266C5.02072 13.8053 3.85388 14.3295 2.99984 14.9878C2.15481 15.6392 1.50002 16.5198 1.50002 17.6H2.40002ZM17.4 14.2924L17.1542 15.1581C18.356 15.4994 19.2892 15.9416 19.9013 16.4134C20.5225 16.8922 20.7 17.3054 20.7 17.6H21.6H22.5C22.5 16.5198 21.8452 15.6392 21.0002 14.9878C20.1462 14.3295 18.9793 13.8053 17.6459 13.4266L17.4 14.2924Z" fill="#4C00FF"/>
</svg>
